{"title":"Shiver 2008 DVDRip Xvid LKRG","uid":6531060,"size":957025842,"categoryP":"video","categoryS":"movies","magnet":"?xt=urn:btih:8d14feddbc77bde1d3bf406aab838e624e1949af&amp;dn=Shiver+2008+DVDRip+Xvid+LKRG&amp;tr=udp%3A%2F%2Ftracker.openbittorrent.com%3A80&amp;tr=udp%3A%2F%2Fopen.demonii.com%3A1337&amp;tr=udp%3A%2F%2Ftracker.coppersurfer.tk%3A6969&amp;tr=udp%3A%2F%2Fexodus.desync.com%3A6969","seeders":1,"leechers":0,"uploader":".BONE.","files":2,"time":1310352170,"description":"\nPLOT\n\nSanti, a young high-school student with a serious physical reaction to sunlight, is forced\nby his health to move with his single mother to a shadowy, isolated village in the mountains\nof Spain where the inhabitants begin to reveal themselves as strangely xenophobic. When\nterrible, violent events begin to occur, Santi becomes first a pariah at school and then\nstrongly suspected by the police of hideous murders.\n &lt;a href=&quot;\nhttp://www.imdb.com/title/tt0896927/&quot; rel=&quot;nofollow&quot; target=&quot;_NEW&quot;&gt;\nhttp://www.imdb.com/title/tt0896927/&lt;/a&gt;\n\nEncoded By .......: BigPerm1828\nRuntime ..........: 1h 34mn\nFile Size ........: 913 MB\nResolution .......: 704x396\nIMDb URL .........: http://www.imdb.com/title/tt0896927/\nGenre ............: Horror,Thriller\nLanguage .........: Spanish\nSubtitles ........: English\nVideo\nID : 0\nFormat : MPEG-4 Visual\nFormat profile : Advanced Simple@L5\nFormat settings, BVOP : Yes\nFormat settings, QPel : No\nFormat settings, GMC : No warppoints\nFormat settings, Matrix : Default (H.263)\nCodec ID : XVID\nCodec ID/Hint : XviD\nDuration : 1h 34mn\nBit rate : 899 Kbps\nWidth : 704 pixels\nHeight : 396 pixels\nDisplay aspect ratio : 16:9\nFrame rate : 23.976 fps\nColor space : YUV\nChroma subsampling : 4:2:0\nBit depth : 8 bits\nScan type : Progressive\nCompression mode : Lossy\nBits/(Pixel*Frame) : 0.134\nStream size : 607 MiB (66%)\nWriting library : XviD 1.2.1 (UTC 2008-12-04)\n\nAudio\nID : 1\nFormat : AC-3\nFormat/Info : Audio Coding 3\nMode extension : CM (complete main)\nCodec ID : 2000\nDuration : 1h 34mn\nBit rate mode : Constant\nBit rate : 448 Kbps\nChannel(s) : 6 channels\nChannel positions : Front: L C R, Side: L R, LFE\nSampling rate : 48.0 KHz\nBit depth : 16 bits\nCompression mode : Lossy\nVideo delay : 42ms\nStream size : 303 MiB (33%)\nAlignment : Split accross interleaves\nInterleave, duration : 500 ms (11.99 video frames)\nInterleave, preload duration : 500 ms\n &lt;a href=&quot;\nhttp://leetleech.org/images/45061118919123862520.png&quot; rel=&quot;nofollow&quot; target=&quot;_NEW&quot;&gt;\nhttp://leetleech.org/images/45061118919123862520.png&lt;/a&gt;\n &lt;a href=&quot;\nhttp://leetleech.org/images/55364234764481013206.png&quot; rel=&quot;nofollow&quot; target=&quot;_NEW&quot;&gt;\nhttp://leetleech.org/images/55364234764481013206.png&lt;/a&gt;\n &lt;a href=&quot;\nhttp://leetleech.org/images/41543689920557973777.png&quot; rel=&quot;nofollow&quot; target=&quot;_NEW&quot;&gt;\nhttp://leetleech.org/images/41543689920557973777.png&lt;/a&gt;\n &lt;a href=&quot;\nhttp://leetleech.org/images/90723732066806593841.png&quot; rel=&quot;nofollow&quot; target=&quot;_NEW&quot;&gt;\nhttp://leetleech.org/images/90723732066806593841.png&lt;/a&gt;","torrent":{"xt":"urn:btih:8d14feddbc77bde1d3bf406aab838e624e1949af","amp;dn":"Shiver+2008+DVDRip+Xvid+LKRG","amp;tr":["udp%3A%2F%2Ftracker.openbittorrent.com%3A80","udp%3A%2F%2Fopen.demonii.com%3A1337","udp%3A%2F%2Ftracker.coppersurfer.tk%3A6969","udp%3A%2F%2Fexodus.desync.com%3A6969"],"infoHash":"8d14feddbc77bde1d3bf406aab838e624e1949af","infoHashBuffer":{"type":"Buffer","data":[141,20,254,221,188,119,189,225,211,191,64,106,171,131,142,98,78,25,73,175]},"announce":[],"urlList":[]}}